<svg preserveAspectRatio="none" width="100%" height="100%" overflow="visible" style="display: block;" viewBox="0 0 180 180" fill="none" xmlns="http://www.w3.org/2000/svg">
<g id="Frame 1321318485">
<rect width="180" height="180" rx="90" fill="white"/>
<path id="Union" fill-rule="evenodd" clip-rule="evenodd" d="M110.28 42.8047C100.52 35.273 94.5507 35.4194 82.2326 36.0036C78.786 25.9771 70.3262 24.0971 62.493 28.1704C54.6598 32.2436 51.6599 40.3432 58.2692 50.7553C51.7481 55.7472 50.8028 60.3458 51.7931 70.3249C51.2778 70.0274 50.8213 69.7477 50.399 69.4889L50.3988 69.4888L50.3983 69.4885L50.3982 69.4885C47.8574 67.9315 46.5596 67.1362 41.1849 67.8171C34.9165 68.6112 31.8412 74.2948 31.7869 79.8694C32.2437 82.8848 33.1211 84.2821 34.3231 84.9951C30.9209 85.6004 28.3378 88.5732 28.3378 92.1492V121.228C28.3378 140.264 53.5885 155.694 84.7368 155.694C109.253 155.694 130.117 146.135 137.889 132.782C140.25 133.413 142.736 133.616 145.267 133.321C157.194 131.928 165.599 119.985 164.041 106.646C162.549 93.8724 152.462 84.4503 141.136 84.8977V84.8824H126.346C131.382 77.8118 131.648 73.0407 128.099 64.1463C142.044 56.3283 135.56 46.3509 131.696 41.9072C127.832 37.4635 116.606 33.4984 110.28 42.8047ZM48.5631 84.8824C49.7654 83.4608 50.1104 81.5494 49.2798 79.9842C48.1441 77.8442 45.2409 77.1616 42.7952 78.4595C40.3495 79.7573 39.2875 82.5443 40.4232 84.6843C40.459 84.7518 40.4966 84.8178 40.5359 84.8824H48.5631ZM114.036 68.3066C114.036 70.9804 111.869 73.1478 109.195 73.1478C106.521 73.1478 104.354 70.9804 104.354 68.3066C104.354 65.6329 106.521 63.4654 109.195 63.4654C111.869 63.4654 114.036 65.6329 114.036 68.3066ZM76.5935 65.5776C79.2672 65.5776 81.4347 63.4101 81.4347 60.7364C81.4347 58.0627 79.2672 55.8952 76.5935 55.8952C73.9198 55.8952 71.7523 58.0627 71.7523 60.7364C71.7523 63.4101 73.9198 65.5776 76.5935 65.5776ZM94.6349 65.7409C95.7281 65.9787 96.154 67.3108 95.4015 68.1387L92.5379 71.289C91.7854 72.1169 90.4189 71.8197 90.0781 70.754L88.7816 66.699C88.4409 65.6333 89.3816 64.5984 90.4748 64.8362L94.6349 65.7409ZM38.9938 80.8094C38.9938 82.0207 38.0118 83.0026 36.8005 83.0026C35.5891 83.0026 34.6072 82.0207 34.6072 80.8094C34.6072 79.598 35.5891 78.6161 36.8005 78.6161C38.0118 78.6161 38.9938 79.598 38.9938 80.8094ZM40.5602 76.7361C41.7715 76.7361 42.7535 75.7541 42.7535 74.5428C42.7535 73.3315 41.7715 72.3495 40.5602 72.3495C39.3489 72.3495 38.3669 73.3315 38.3669 74.5428C38.3669 75.7541 39.3489 76.7361 40.5602 76.7361ZM50.2736 74.5428C50.2736 75.7541 49.2917 76.7361 48.0803 76.7361C46.869 76.7361 45.8871 75.7541 45.8871 74.5428C45.8871 73.3315 46.869 72.3495 48.0803 72.3495C49.2917 72.3495 50.2736 73.3315 50.2736 74.5428ZM141.136 97.6742V120.97C147.938 119.828 153.042 115.047 153.042 109.322C153.042 103.597 147.938 98.8155 141.136 97.6742Z" fill="#D6D3CF"/>
</g>
</svg>
