<svg preserveAspectRatio="none" width="100%" height="100%" overflow="visible" style="display: block;" viewBox="0 0 180 180" fill="none" xmlns="http://www.w3.org/2000/svg">
<g id="Frame 1321318486">
<rect width="180" height="180" rx="90" fill="white"/>
<path id="Union" fill-rule="evenodd" clip-rule="evenodd" d="M110.28 42.8047C100.52 35.273 94.5507 35.4194 82.2327 36.0036C78.7861 25.9771 70.3262 24.0971 62.493 28.1704C54.6599 32.2436 51.6599 40.3432 58.2693 50.7553C51.7482 55.7472 50.8029 60.3458 51.7932 70.3249C51.2778 70.0274 50.8211 69.7475 50.3988 69.4888L50.3983 69.4884C47.8575 67.9315 46.5597 67.1362 41.1849 67.8171C34.9166 68.6112 31.8413 74.2948 31.7869 79.8694C32.2439 82.8857 33.1217 84.2829 34.3242 84.9957C30.9238 85.6024 28.3424 88.5744 28.3424 92.1492V121.228C28.3424 140.264 53.5931 155.694 84.7414 155.694C109.258 155.694 130.121 146.135 137.893 132.782C140.255 133.413 142.74 133.616 145.271 133.321C157.198 131.928 165.604 119.985 164.046 106.646C162.554 93.8724 152.466 84.4504 141.14 84.8977V84.8824H126.346C131.382 77.8118 131.648 73.0407 128.099 64.1463C142.044 56.3283 135.56 46.3509 131.696 41.9072C127.832 37.4635 116.606 33.4984 110.28 42.8047ZM48.5635 84.8824C49.7658 83.4608 50.1109 81.5494 49.2802 79.9842C48.1446 77.8442 45.2413 77.1616 42.7956 78.4595C40.35 79.7573 39.288 82.5443 40.4236 84.6843C40.4594 84.7518 40.497 84.8178 40.5363 84.8824H48.5635ZM114.036 68.3066C114.036 70.9804 111.869 73.1478 109.195 73.1478C106.521 73.1478 104.354 70.9804 104.354 68.3066C104.354 65.6329 106.521 63.4654 109.195 63.4654C111.869 63.4654 114.036 65.6329 114.036 68.3066ZM76.5937 65.5776C79.2675 65.5776 81.4349 63.4101 81.4349 60.7364C81.4349 58.0627 79.2675 55.8952 76.5937 55.8952C73.92 55.8952 71.7525 58.0627 71.7525 60.7364C71.7525 63.4101 73.92 65.5776 76.5937 65.5776ZM94.6352 65.7409C95.7284 65.9787 96.1543 67.3108 95.4018 68.1387L92.5382 71.289C91.7857 72.1169 90.4191 71.8197 90.0784 70.754L88.7819 66.699C88.4412 65.6333 89.3818 64.5984 90.4751 64.8362L94.6352 65.7409ZM38.9942 80.8094C38.9942 82.0207 38.0122 83.0026 36.8009 83.0026C35.5896 83.0026 34.6076 82.0207 34.6076 80.8094C34.6076 79.598 35.5896 78.6161 36.8009 78.6161C38.0122 78.6161 38.9942 79.598 38.9942 80.8094ZM40.5606 76.7361C41.7719 76.7361 42.7539 75.7541 42.7539 74.5428C42.7539 73.3315 41.7719 72.3495 40.5606 72.3495C39.3493 72.3495 38.3673 73.3315 38.3673 74.5428C38.3673 75.7541 39.3493 76.7361 40.5606 76.7361ZM50.2741 74.5428C50.2741 75.7541 49.2921 76.7361 48.0808 76.7361C46.8695 76.7361 45.8875 75.7541 45.8875 74.5428C45.8875 73.3315 46.8695 72.3495 48.0808 72.3495C49.2921 72.3495 50.2741 73.3315 50.2741 74.5428ZM153.047 109.322C153.047 103.597 147.943 98.8155 141.14 97.6743V120.97C147.943 119.828 153.047 115.047 153.047 109.322Z" fill="#D6D3CF"/>
</g>
</svg>
