<svg preserveAspectRatio="none" width="100%" height="100%" overflow="visible" style="display: block;" viewBox="0 0 180 180" fill="none" xmlns="http://www.w3.org/2000/svg">
<g id="Frame 1321318484">
<rect width="180" height="180" rx="90" fill="white"/>
<path id="Union" fill-rule="evenodd" clip-rule="evenodd" d="M110.279 42.8047C100.519 35.273 94.5496 35.4194 82.2316 36.0036C78.785 25.9771 70.3251 24.0971 62.4919 28.1704C54.6587 32.2436 51.6588 40.3433 58.2681 50.7553C51.7471 55.7472 50.8018 60.3458 51.7921 70.3249C51.2765 70.0272 50.8196 69.7473 50.3972 69.4885C47.8564 67.9315 46.5586 67.1362 41.1838 67.8171C34.9154 68.6112 31.8401 74.2948 31.7858 79.8694C32.2427 82.8853 33.1203 84.2825 34.3226 84.9954C30.9213 85.6014 28.339 88.5738 28.339 92.1492V121.228C28.339 140.264 53.5897 155.694 84.738 155.694C109.255 155.694 130.118 146.135 137.89 132.782C140.251 133.413 142.737 133.616 145.268 133.321C157.195 131.928 165.601 119.985 164.043 106.646C162.551 93.8723 152.463 84.4502 141.137 84.8977V84.8824H126.345C131.381 77.8118 131.647 73.0407 128.098 64.1463C142.043 56.3283 135.559 46.3509 131.695 41.9072C127.83 37.4635 116.605 33.4984 110.279 42.8047ZM48.5627 84.8824C49.7649 83.4608 50.11 81.5494 49.2794 79.9842C48.1437 77.8442 45.2405 77.1616 42.7948 78.4595C40.3491 79.7573 39.2871 82.5443 40.4227 84.6843C40.4586 84.7518 40.4962 84.8178 40.5354 84.8824H48.5627ZM114.035 68.3066C114.035 70.9804 111.868 73.1479 109.194 73.1478C106.52 73.1478 104.353 70.9804 104.353 68.3066C104.353 65.6329 106.52 63.4654 109.194 63.4654C111.868 63.4654 114.035 65.6329 114.035 68.3066ZM76.5932 65.5776C79.2669 65.5776 81.4344 63.4101 81.4344 60.7364C81.4344 58.0627 79.2669 55.8952 76.5932 55.8952C73.9195 55.8952 71.752 58.0627 71.752 60.7364C71.752 63.4101 73.9195 65.5776 76.5932 65.5776ZM94.6346 65.7409C95.7279 65.9787 96.1538 67.3108 95.4012 68.1387L92.5377 71.289C91.7852 72.1169 90.4186 71.8197 90.0779 70.754L88.7814 66.699C88.4407 65.6333 89.3813 64.5984 90.4746 64.8362L94.6346 65.7409ZM38.9933 80.8094C38.9933 82.0207 38.0114 83.0026 36.8 83.0026C35.5887 83.0026 34.6067 82.0207 34.6067 80.8094C34.6067 79.598 35.5887 78.6161 36.8 78.6161C38.0114 78.6161 38.9933 79.598 38.9933 80.8094ZM40.5598 76.7361C41.7711 76.7361 42.753 75.7541 42.753 74.5428C42.753 73.3315 41.7711 72.3495 40.5598 72.3495C39.3484 72.3495 38.3665 73.3315 38.3665 74.5428C38.3665 75.7541 39.3484 76.7361 40.5598 76.7361ZM50.2732 74.5428C50.2732 75.7541 49.2912 76.7361 48.0799 76.7361C46.8686 76.7361 45.8866 75.7541 45.8866 74.5428C45.8866 73.3315 46.8686 72.3495 48.0799 72.3495C49.2912 72.3495 50.2732 73.3315 50.2732 74.5428ZM153.044 109.322C153.044 103.597 147.939 98.8154 141.137 97.6742V120.97C147.939 119.828 153.044 115.047 153.044 109.322Z" fill="#5D5040"/>
</g>
</svg>
